<svg id="bell_notification" data-name="bell notification" xmlns="http://www.w3.org/2000/svg" width="35.014" height="35.014" viewBox="0 0 35.014 35.014">
  <path id="Path_220" data-name="Path 220" d="M28.449,35.014H6.565A6.565,6.565,0,0,1,0,28.449V6.565A6.565,6.565,0,0,1,6.565,0H28.449a6.565,6.565,0,0,1,6.565,6.565V28.449A6.565,6.565,0,0,1,28.449,35.014Zm0,0" fill="none"/>
  <path id="Path_221" data-name="Path 221" d="M198.154,354.188a2.739,2.739,0,0,0,2.68-2.188h-5.36A2.74,2.74,0,0,0,198.154,354.188Zm0,0" transform="translate(-182.104 -327.928)" fill="#00a333"/>
  <path id="Path_222" data-name="Path 222" d="M140.82,138.582c-.019,0-.037,0-.056,0a5.825,5.825,0,0,1-4.741-9.224v-.624a.729.729,0,0,0-1.459,0v.788a5.109,5.109,0,0,0-4.377,5.047v2.034a4.892,4.892,0,0,1-1.742,3.745,1.277,1.277,0,0,0,.831,2.246h12.036a1.276,1.276,0,0,0,.824-2.252,4.88,4.88,0,0,1-1.316-1.764Zm0,0" transform="translate(-119.246 -119.254)" fill="#00a333"/>
  <path id="Path_223" data-name="Path 223" d="M250.085,128a4.741,4.741,0,1,0,4.741,4.741A4.741,4.741,0,0,0,250.085,128Zm.911,5.835a.547.547,0,0,1,0,1.094h-1.824a.547.547,0,0,1-.547-.547v-.635a1.555,1.555,0,0,1,1.554-1.554.274.274,0,1,0,0-.547h-1.007a.547.547,0,0,1,0-1.094h1.007a1.368,1.368,0,1,1,0,2.735.46.46,0,0,0-.459.459v.088Zm0,0" transform="translate(-228.565 -119.247)" fill="#00a333"/>
</svg>
