<svg id="Component_7_1" data-name="Component 7 – 1" xmlns="http://www.w3.org/2000/svg" width="20" height="20" viewBox="0 0 20 20">
  <path id="Path_420" data-name="Path 420" d="M12,2A10,10,0,1,0,22,12,10,10,0,0,0,12,2Zm.88,15.76V19H11.13V17.71a4.037,4.037,0,0,1-3.02-2.96l1.65-.67a2.641,2.641,0,0,0,2.4,2.09c.93,0,1.98-.48,1.98-1.61,0-.96-.7-1.46-2.28-2.03-1.1-.39-3.35-1.03-3.35-3.31a3.078,3.078,0,0,1,2.62-2.96V5h1.75V6.24a3.425,3.425,0,0,1,2.66,2.23l-1.58.67a1.932,1.932,0,0,0-1.9-1.34c-.7,0-1.81.37-1.81,1.39,0,.95.86,1.31,2.64,1.9,2.4.83,3.01,2.05,3.01,3.45A3.315,3.315,0,0,1,12.88,17.76Z" transform="translate(-2 -2)" fill="#fff"/>
</svg>
