<svg id="Component_12_1" data-name="Component 12 – 1" xmlns="http://www.w3.org/2000/svg" width="15.273" height="15.279" viewBox="0 0 15.273 15.279">
  <path id="Path_610" data-name="Path 610" d="M31.547,16.576a.555.555,0,0,0-.762,0L24.061,23.3l-6.723-6.723a.539.539,0,0,0-.762.762L23.3,24.061l-6.723,6.723a.555.555,0,0,0,0,.762.541.541,0,0,0,.762,0l6.723-6.723,6.723,6.723a.541.541,0,0,0,.762,0,.555.555,0,0,0,0-.762l-6.723-6.723,6.723-6.723A.555.555,0,0,0,31.547,16.576Z" transform="translate(-16.425 -16.425)"/>
</svg>
