<svg id="Component_15_1" data-name="Component 15 – 1" xmlns="http://www.w3.org/2000/svg" width="50" height="50" viewBox="0 0 50 50">
  <path id="Path_575" data-name="Path 575" d="M25,50A25,25,0,1,0,0,25,25,25,0,0,0,25,50Z" fill="#1d9843"/>
  <g id="Group_1603" data-name="Group 1603" transform="translate(9.469 14.113)">
    <path id="Path_576" data-name="Path 576" d="M55.206,55.889a.675.675,0,0,0-.066-.1l-3.389-4.061v-14.1a1.3,1.3,0,0,0-1.3-1.3H29.6a1.3,1.3,0,0,0-1.3,1.3v14.1L24.9,55.794a.662.662,0,0,0-.066.1,2.606,2.606,0,0,0,2.265,3.9H52.946a2.6,2.6,0,0,0,2.26-3.9Zm-11.515.643a.652.652,0,0,1-.652.652H37a.652.652,0,0,1,0-1.3h6.038A.652.652,0,0,1,43.692,56.532Zm-14.1-18.9H50.449V51.32H29.6Z" transform="translate(-24.492 -36.33)" fill="#fff"/>
    <path id="Path_577" data-name="Path 577" d="M58.385,42.963H41.443a.652.652,0,0,0-.652.652V53.39a.652.652,0,0,0,.652.652H58.385a.652.652,0,0,0,.652-.652V43.615A.656.656,0,0,0,58.385,42.963Z" transform="translate(-34.383 -40.355)" fill="#fff"/>
  </g>
</svg>
