<svg id="Component_14_1" data-name="Component 14 – 1" xmlns="http://www.w3.org/2000/svg" width="50" height="50" viewBox="0 0 50 50">
  <path id="Path_596" data-name="Path 596" d="M25,0A25,25,0,1,0,50,25,25,25,0,0,0,25,0Zm0,12a8.983,8.983,0,0,1,9,8.961v8.078a9,9,0,0,1-18,0V20.961A8.983,8.983,0,0,1,25,12Zm-1,2.1a6.914,6.914,0,0,0-6,6.863V22h6V19.7A1.937,1.937,0,0,1,24,16.3Zm2,0V16.3A1.937,1.937,0,0,1,26,19.7V22h6V20.961A6.914,6.914,0,0,0,26,14.1ZM18,24v5.039a7,7,0,0,0,14,0V24Z" fill="#1d9843"/>
</svg>
