<svg id="Layer_2" data-name="Layer 2" xmlns="http://www.w3.org/2000/svg" width="24" height="24" viewBox="0 0 24 24">
  <g id="download">
    <rect id="Rectangle_140" data-name="Rectangle 140" width="24" height="24" fill="#00a333" opacity="0"/>
    <rect id="Rectangle_141" data-name="Rectangle 141" width="16" height="2" rx="1" transform="translate(4 18)" fill="#00a333"/>
    <rect id="Rectangle_142" data-name="Rectangle 142" width="4" height="2" rx="1" transform="translate(4 20) rotate(-90)" fill="#00a333"/>
    <rect id="Rectangle_143" data-name="Rectangle 143" width="4" height="2" rx="1" transform="translate(18 20) rotate(-90)" fill="#00a333"/>
    <path id="Path_563" data-name="Path 563" d="M12,15a1,1,0,0,1-.58-.18L7.42,12a1,1,0,1,1,1.16-1.63L12,12.76l3.4-2.56a1,1,0,1,1,1.2,1.6l-4,3a1,1,0,0,1-.6.2Z" fill="#00a333"/>
    <path id="Path_564" data-name="Path 564" d="M12,13a1,1,0,0,1-1-1V4a1,1,0,0,1,2,0v8A1,1,0,0,1,12,13Z" fill="#00a333"/>
  </g>
</svg>
