<svg id="pending_actions_black_24dp" xmlns="http://www.w3.org/2000/svg" width="24" height="24" viewBox="0 0 24 24">
  <rect id="Rectangle_91" data-name="Rectangle 91" width="24" height="24" fill="none"/>
  <path id="Path_423" data-name="Path 423" d="M17,12a5,5,0,1,0,5,5A5,5,0,0,0,17,12Zm1.65,7.35L16.5,17.2V14h1v2.79l1.85,1.85ZM18,3H14.82A2.988,2.988,0,0,0,9.18,3H6A2.006,2.006,0,0,0,4,5V20a2.006,2.006,0,0,0,2,2h6.11a6.743,6.743,0,0,1-1.42-2H6V5H8V8h8V5h2v5.08a7.03,7.03,0,0,1,2,.6V5A2.006,2.006,0,0,0,18,3ZM12,5a1,1,0,1,1,1-1A1,1,0,0,1,12,5Z" fill="#fff"/>
</svg>
